<svg id="Layer_1" data-name="Layer 1" xmlns="http://www.w3.org/2000/svg" xmlns:xlink="http://www.w3.org/1999/xlink" viewBox="0 0 24 24"><defs><clipPath id="clip-path"><rect width="24" height="24" style="fill:none"/></clipPath></defs><g id="Phone"><g style="clip-path:url(#clip-path)"><g style="clip-path:url(#clip-path)"><path d="M20.79,19.49l-3.41-3.41a1.21,1.21,0,0,0-1.72,0l-1.72,1.71a1.3,1.3,0,0,1-1.62.19A20.43,20.43,0,0,1,6,11.67a1.29,1.29,0,0,1,.19-1.6L7.92,8.34a1.21,1.21,0,0,0,0-1.72L4.51,3.21a1.21,1.21,0,0,0-1.72,0l-2,2A1.65,1.65,0,0,0,.38,7,28.05,28.05,0,0,0,17,23.62a1.65,1.65,0,0,0,1.73-.38l2-2A1.21,1.21,0,0,0,20.79,19.49Z" style="fill:none;stroke:#354154;stroke-linecap:round;stroke-linejoin:round;stroke-width:0.5596405893163585px"/><rect x="21.5" width="2.5" height="2.5" style="fill:#8aa0b2"/><rect x="12.31" width="2.5" height="2.5" style="fill:#8aa0b2"/><rect x="16.91" width="2.5" height="2.5" style="fill:#8aa0b2"/><rect x="21.5" y="4.59" width="2.5" height="2.5" style="fill:#8aa0b2"/><rect x="12.31" y="4.59" width="2.5" height="2.5" style="fill:#8aa0b2"/><rect x="16.91" y="4.59" width="2.5" height="2.5" style="fill:#8aa0b2"/><rect x="21.5" y="9.19" width="2.5" height="2.5" style="fill:#8aa0b2"/><rect x="12.31" y="9.19" width="2.5" height="2.5" style="fill:#8aa0b2"/><rect x="16.91" y="9.19" width="2.5" height="2.5" style="fill:#8aa0b2"/></g></g></g></svg>