<svg id="Layer_1" data-name="Layer 1" xmlns="http://www.w3.org/2000/svg" xmlns:xlink="http://www.w3.org/1999/xlink" viewBox="0 0 24 24"><defs><clipPath id="clip-path"><rect x="0.2" y="0.66" width="23.24" height="22.54" style="fill:none"/></clipPath></defs><g id="Artwork_1" data-name="Artwork 1"><g style="clip-path:url(#clip-path)"><line x1="20.09" y1="4.29" x2="10.77" y2="4.29" style="fill:none;stroke:#354154;stroke-linecap:round;stroke-miterlimit:10;stroke-width:0.5960640233195561px"/><line x1="10.77" y1="6.63" x2="20.09" y2="6.63" style="fill:none;stroke:#354154;stroke-linecap:round;stroke-miterlimit:10;stroke-width:0.5960640233195561px"/><line x1="10.77" y1="8.97" x2="20.09" y2="8.97" style="fill:none;stroke:#354154;stroke-linecap:round;stroke-miterlimit:10;stroke-width:0.5960640233195561px"/><line x1="3.56" y1="14.41" x2="12.87" y2="14.41" style="fill:none;stroke:#354154;stroke-linecap:round;stroke-miterlimit:10;stroke-width:0.5960640233195561px"/><line x1="3.56" y1="16.75" x2="12.87" y2="16.75" style="fill:none;stroke:#354154;stroke-linecap:round;stroke-miterlimit:10;stroke-width:0.5960640233195561px"/><g style="clip-path:url(#clip-path)"><path d="M7.69,1.67v9.91a.64.64,0,0,0,.58.69H21a.52.52,0,0,1,.4.21l1.81,2.15v-13A.64.64,0,0,0,22.59,1H8.27A.64.64,0,0,0,7.69,1.67Z" style="fill:none;stroke:#354154;stroke-linecap:round;stroke-miterlimit:10;stroke-width:0.5960640233195561px"/><path d="M16,12.27v7.09a.64.64,0,0,1-.58.69H2.69a.53.53,0,0,0-.41.2L.48,22.41v-13a.64.64,0,0,1,.57-.69H7.69" style="fill:none;stroke:#354154;stroke-linecap:round;stroke-miterlimit:10;stroke-width:0.5960640233195561px"/></g></g></g></svg>