<svg id="Layer_1" data-name="Layer 1" xmlns="http://www.w3.org/2000/svg" xmlns:xlink="http://www.w3.org/1999/xlink" viewBox="0 0 24 24"><defs><clipPath id="clip-path"><rect width="24" height="24.17" style="fill:none"/></clipPath></defs><g id="Artwork_1" data-name="Artwork 1"><g style="clip-path:url(#clip-path)"><g style="clip-path:url(#clip-path)"><polyline points="23.73 8.49 12 14.74 0.27 8.49" style="fill:none;stroke:#354154;stroke-miterlimit:10;stroke-width:0.5563879705701478px"/><path d="M23.73,8.49,12,.34.27,8.49V22A1.87,1.87,0,0,0,2.1,23.89H21.9A1.87,1.87,0,0,0,23.73,22Z" style="fill:none;stroke:#354154;stroke-miterlimit:10;stroke-width:0.5563879705701478px"/><path d="M8.45,14.93l2.92,1.56a1.4,1.4,0,0,0,1.26,0l2.92-1.56" style="fill:none;stroke:#354154;stroke-linecap:round;stroke-miterlimit:10;stroke-width:0.5563879705701478px"/><polyline points="18.57 11.24 18.57 7.86 5.43 7.86 5.43 11.24" style="fill:none;stroke:#354154;stroke-miterlimit:10;stroke-width:0.5563879705701478px"/><path d="M22.61,21.83V19.09a43.78,43.78,0,0,1-21.22,0v2.74a.88.88,0,0,0,.86.9h19.5a.88.88,0,0,0,.86-.9" style="fill:#f36d40"/><path d="M12.6,11.9a.5.5,0,0,0-.14-.35A1.27,1.27,0,0,0,12,11.3a1.73,1.73,0,0,1-.68-.37.84.84,0,0,1-.23-.61.89.89,0,0,1,.21-.61,1,1,0,0,1,.58-.28V8.94h.35v.5a.84.84,0,0,1,.58.3,1.1,1.1,0,0,1,.21.7h-.44a.77.77,0,0,0-.14-.47A.45.45,0,0,0,12,9.8a.53.53,0,0,0-.39.13.53.53,0,0,0-.13.38.46.46,0,0,0,.13.35,1.36,1.36,0,0,0,.49.26,1.73,1.73,0,0,1,.68.37.85.85,0,0,1,.22.6.86.86,0,0,1-.23.62,1.07,1.07,0,0,1-.63.27v.43h-.35v-.43a1,1,0,0,1-.63-.28.93.93,0,0,1-.23-.71h.42a.57.57,0,0,0,.6.64.69.69,0,0,0,.45-.14.5.5,0,0,0,.16-.38" style="fill:#687885"/><path d="M8.61,11.07a.1.1,0,0,0-.1-.1.1.1,0,0,0-.09.1.09.09,0,0,0,.09.1A.09.09,0,0,0,8.61,11.07Z" style="fill:none;stroke:#354154;stroke-miterlimit:10;stroke-width:0.5563879705701478px"/><path d="M15.58,11.07a.1.1,0,0,0-.09-.1.1.1,0,0,0-.1.1.09.09,0,0,0,.1.1A.09.09,0,0,0,15.58,11.07Z" style="fill:none;stroke:#354154;stroke-miterlimit:10;stroke-width:0.5563879705701478px"/></g></g></g></svg>