<svg id="Layer_1" data-name="Layer 1" xmlns="http://www.w3.org/2000/svg" xmlns:xlink="http://www.w3.org/1999/xlink" viewBox="0 0 24 24"><defs><style>.cls-1,.cls-3{fill:none;}.cls-2{clip-path:url(#clip-path);}.cls-3{stroke:#354154;stroke-linecap:round;stroke-miterlimit:10;stroke-width:0.62px;}</style><clipPath id="clip-path"><rect class="cls-1" x="0.2" width="23.8" height="23.76"/></clipPath></defs><g id="Artwork_1" data-name="Artwork 1"><g class="cls-2"><line class="cls-3" x1="20.57" y1="3.83" x2="11.02" y2="3.83"/><line class="cls-3" x1="11.02" y1="6.29" x2="20.57" y2="6.29"/><line class="cls-3" x1="11.02" y1="8.76" x2="20.57" y2="8.76"/><line class="cls-3" x1="3.64" y1="14.49" x2="13.18" y2="14.49"/><line class="cls-3" x1="3.64" y1="16.96" x2="13.18" y2="16.96"/><g class="cls-2"><path class="cls-3" d="M7.87,1.07V11.52a.66.66,0,0,0,.59.72h13a.57.57,0,0,1,.42.22l1.84,2.27V1.07a.67.67,0,0,0-.59-.73H8.46A.67.67,0,0,0,7.87,1.07Z"/><path class="cls-3" d="M16.34,12.24v7.47a.67.67,0,0,1-.6.73h-13a.54.54,0,0,0-.42.22L.48,22.93V9.27a.68.68,0,0,1,.59-.73h6.8"/></g></g></g></svg>