<svg id="Layer_1" data-name="Layer 1" xlink:href="data:image/png;base64" xmlns="http://www.w3.org/2000/svg" xmlns:xlink="http://www.w3.org/1999/xlink" viewBox="0 0 24 24"><defs><style>.cls-1,.cls-3{fill:none;}.cls-2{clip-path:url(#clip-path);}.cls-3{stroke:#354154;stroke-linecap:round;stroke-linejoin:round;stroke-width:0.56px;}.cls-4{fill:#8aa0b2;}</style><clipPath id="clip-path"><rect class="cls-1" width="24" height="24"/></clipPath></defs><g id="Phone"><g class="cls-2"><g class="cls-2"><path class="cls-3" d="M20.79,19.49l-3.41-3.41a1.21,1.21,0,0,0-1.72,0l-1.72,1.71a1.3,1.3,0,0,1-1.62.19A20.43,20.43,0,0,1,6,11.67a1.29,1.29,0,0,1,.19-1.6L7.92,8.34a1.21,1.21,0,0,0,0-1.72L4.51,3.21a1.21,1.21,0,0,0-1.72,0l-2,2A1.65,1.65,0,0,0,.38,7,28.05,28.05,0,0,0,17,23.62a1.65,1.65,0,0,0,1.73-.38l2-2A1.21,1.21,0,0,0,20.79,19.49Z"/><rect class="cls-4" x="21.5" width="2.5" height="2.5"/><rect class="cls-4" x="12.31" width="2.5" height="2.5"/><rect class="cls-4" x="16.91" width="2.5" height="2.5"/><rect class="cls-4" x="21.5" y="4.59" width="2.5" height="2.5"/><rect class="cls-4" x="12.31" y="4.59" width="2.5" height="2.5"/><rect class="cls-4" x="16.91" y="4.59" width="2.5" height="2.5"/><rect class="cls-4" x="21.5" y="9.19" width="2.5" height="2.5"/><rect class="cls-4" x="12.31" y="9.19" width="2.5" height="2.5"/><rect class="cls-4" x="16.91" y="9.19" width="2.5" height="2.5"/></g></g></g></svg>